<svg width="22" height="24" viewBox="0 0 22 24" fill="none" xmlns="http://www.w3.org/2000/svg">
<path d="M10.55 11.5C13.0828 11.5 15.5119 12.5062 17.3029 14.2971C19.0938 16.0881 20.1 18.5172 20.1 21.05V22.05H1V21.05C1 18.5172 2.00616 16.0881 3.79713 14.2971C5.5881 12.5062 8.01718 11.5 10.55 11.5ZM10.55 11.5C11.1772 11.5013 11.7986 11.3789 12.3785 11.1398C12.9583 10.9007 13.4854 10.5495 13.9294 10.1064C14.3734 9.66337 14.7256 9.13709 14.966 8.55771C15.2063 7.97834 15.33 7.35725 15.33 6.73V1H5.78V6.73C5.78 7.99508 6.28255 9.20835 7.1771 10.1029C8.07165 10.9974 9.28492 11.5 10.55 11.5ZM5.78 3.86L10.55 4.82L15.32 3.57M1.96 1H19.14M15.32 12.45L11.9 15.88M9.2 15.88L5.78 12.45M12.46 17.23C12.46 18.2849 11.6049 19.14 10.55 19.14C9.49514 19.14 8.64 18.2849 8.64 17.23C8.64 16.1751 9.49514 15.32 10.55 15.32C11.6049 15.32 12.46 16.1751 12.46 17.23Z" stroke="#E3E3E3" stroke-width="1.91" stroke-miterlimit="10"/>
</svg>
