<svg width="26" height="26" viewBox="0 0 26 26" fill="none" xmlns="http://www.w3.org/2000/svg">
<path d="M20.5513 11.9392V5.40304H14.1179V4.26236C14.1179 3.39713 13.7742 2.56733 13.1623 1.95552C12.5505 1.34371 11.7207 1 10.8555 1C9.99028 1 9.16049 1.34371 8.54868 1.95552C7.93687 2.56733 7.59316 3.39713 7.59316 4.26236V5.40304H1V11.9392H2.14068C3.00592 11.9392 3.83571 12.2829 4.44752 12.8947C5.05933 13.5065 5.40304 14.3363 5.40304 15.2015C5.40304 16.0668 5.05933 16.8965 4.44752 17.5084C3.83571 18.1202 3.00592 18.4639 2.14068 18.4639H1V25H7.53612V23.9163C7.53612 23.0511 7.87983 22.2213 8.49164 21.6095C9.10345 20.9977 9.93325 20.654 10.7985 20.654C11.6637 20.654 12.4935 20.9977 13.1053 21.6095C13.7171 22.2213 14.0608 23.0511 14.0608 23.9163V25H20.597V18.4639H21.7376C22.6029 18.4639 23.4327 18.1202 24.0445 17.5084C24.6563 16.8965 25 16.0668 25 15.2015C25 14.3363 24.6563 13.5065 24.0445 12.8947C23.4327 12.2829 22.6029 11.9392 21.7376 11.9392H20.5513Z" stroke="#E3E3E3" stroke-width="1.91" stroke-miterlimit="10"/>
</svg>
