<svg width="25" height="23" viewBox="0 0 25 23" fill="none" xmlns="http://www.w3.org/2000/svg">
<path d="M15.5714 1C16.5944 1 17.5755 1.40638 18.2988 2.12973C19.0222 2.85309 19.4286 3.83417 19.4286 4.85714C19.4286 5.88012 19.0222 6.8612 18.2988 7.58455C17.5755 8.30791 16.5944 8.71429 15.5714 8.71429M18.3143 12.4686C19.7746 13.0241 21.0318 14.0099 21.9195 15.2956C22.8072 16.5813 23.2836 18.1062 23.2857 19.6686V21.5714H20.7143M12.5714 4.85714C12.5714 6.98738 10.8445 8.71429 8.71429 8.71429C6.58404 8.71429 4.85714 6.98738 4.85714 4.85714C4.85714 2.7269 6.58404 1 8.71429 1C10.8445 1 12.5714 2.7269 12.5714 4.85714ZM16.4286 21.5714H1V19.8571C1 17.8112 1.81275 15.849 3.25946 14.4023C4.70617 12.9556 6.66833 12.1429 8.71429 12.1429C10.7602 12.1429 12.7224 12.9556 14.1691 14.4023C15.6158 15.849 16.4286 17.8112 16.4286 19.8571V21.5714Z" stroke="#E3E3E3" stroke-width="1.71429" stroke-linecap="round" stroke-linejoin="round"/>
</svg>
