<svg width="25" height="25" viewBox="0 0 25 25" fill="none" xmlns="http://www.w3.org/2000/svg">
<path d="M23.2857 9.57143C23.2857 15.7257 18.2286 23.2857 12.1429 23.2857C6.05714 23.2857 1 15.7257 1 9.57143C1 3.41714 5.98857 1 12.1429 1C18.2971 1 23.2857 3.41714 23.2857 9.57143Z" stroke="#E3E3E3" stroke-width="1.71429" stroke-linecap="round" stroke-linejoin="round"/>
<path d="M4.85714 8.28571C4.70266 9.00325 4.69751 9.74491 4.84203 10.4645C4.98654 11.1841 5.27762 11.8663 5.69714 12.4686C6.29941 12.8881 6.98158 13.1792 7.70119 13.3237C8.42081 13.4682 9.16246 13.4631 9.88 13.3086C10.0345 12.591 10.0396 11.8494 9.89512 11.1298C9.7506 10.4102 9.45953 9.72798 9.04 9.12571C8.43773 8.70619 7.75557 8.41511 7.03595 8.2706C6.31634 8.12608 5.57468 8.13123 4.85714 8.28571Z" stroke="#E3E3E3" stroke-width="1.71429" stroke-linecap="round" stroke-linejoin="round"/>
<path d="M19.4286 8.28571C19.5831 9.00325 19.5882 9.74491 19.4437 10.4645C19.2992 11.1841 19.0081 11.8663 18.5886 12.4686C17.9863 12.8881 17.3041 13.1792 16.5845 13.3237C15.8649 13.4682 15.1233 13.4631 14.4057 13.3086C14.2512 12.591 14.2461 11.8494 14.3906 11.1298C14.5351 10.4102 14.8262 9.72798 15.2457 9.12571C15.848 8.70619 16.5301 8.41511 17.2498 8.2706C17.9694 8.12608 18.711 8.13123 19.4286 8.28571Z" stroke="#E3E3E3" stroke-width="1.71429" stroke-linecap="round" stroke-linejoin="round"/>
</svg>
