<svg width="26" height="24" viewBox="0 0 26 24" fill="none" xmlns="http://www.w3.org/2000/svg">
<path d="M16.4 8.7L10.9 14.2L7.6 10.9M23 12C23 9.82441 22.3548 7.69767 21.1462 5.88873C19.9375 4.07979 18.2195 2.66989 16.2095 1.83733C14.1995 1.00477 11.9878 0.786929 9.854 1.21137C7.72021 1.6358 5.7602 2.68345 4.22183 4.22183C2.68345 5.76021 1.6358 7.72022 1.21137 9.85401C0.78693 11.9878 1.00477 14.1995 1.83733 16.2095C2.66989 18.2195 4.07979 19.9375 5.88873 21.1462C7.69767 22.3549 9.8244 23 12 23H23L19.92 19.6189C21.8997 17.5773 23.0047 14.8438 23 12Z" stroke="black" stroke-width="1.9" stroke-miterlimit="10"/>
</svg>
