<svg width="24" height="24" viewBox="0 0 24 24" fill="none" xmlns="http://www.w3.org/2000/svg">
<path d="M11.0076 18.0029L9.0071 12.9952M9.0071 9.00382H10.9552V13.0476H9.0071C8.73627 13.0479 8.4682 12.9932 8.21913 12.8868C7.97007 12.7804 7.74519 12.6245 7.55814 12.4286C7.3711 12.2327 7.22576 12.0009 7.13096 11.7471C7.03616 11.4933 6.99385 11.223 7.00662 10.9524C7.02027 10.4308 7.23705 9.93524 7.61074 9.57124C7.98443 9.20725 8.48549 9.00364 9.0071 9.00382ZM10.9971 9.00382L16.0035 7.00287V14.9962L10.9971 13.0057V9.00382ZM12.0026 1.00001C9.82667 0.996913 7.69883 1.64013 5.88884 2.84812C4.07885 4.0561 2.66822 5.77446 1.83579 7.78532C1.00337 9.79618 0.786629 12.009 1.21306 14.1432C1.63949 16.2774 2.68989 18.237 4.23108 19.7733L2.00017 23H12.0026C14.9193 23 17.7165 21.8411 19.7789 19.7782C21.8413 17.7153 23 14.9174 23 12C23 9.08263 21.8413 6.28473 19.7789 4.22184C17.7165 2.15894 14.9193 1.00001 12.0026 1.00001Z" stroke="#E3E3E3" stroke-width="1.91" stroke-miterlimit="10"/>
</svg>
