<svg width="25" height="25" viewBox="0 0 25 25" fill="none" xmlns="http://www.w3.org/2000/svg">
<path d="M2.71429 4.42857C2.25963 4.42857 1.82359 4.60918 1.5021 4.93067C1.18061 5.25217 1 5.6882 1 6.14286V21.5714C1 22.0261 1.18061 22.4621 1.5021 22.7836C1.82359 23.1051 2.25963 23.2857 2.71429 23.2857H21.5714C22.0261 23.2857 22.4621 23.1051 22.7836 22.7836C23.1051 22.4621 23.2857 22.0261 23.2857 21.5714V6.14286C23.2857 5.6882 23.1051 5.25217 22.7836 4.93067C22.4621 4.60918 22.0261 4.42857 21.5714 4.42857H18.1429M6.14286 1V7.85714M18.1429 1V7.85714M6.14286 4.42857H14.7143M7 13C7 13.4734 6.61624 13.8571 6.14286 13.8571C5.66947 13.8571 5.28571 13.4734 5.28571 13C5.28571 12.5266 5.66947 12.1429 6.14286 12.1429C6.61624 12.1429 7 12.5266 7 13ZM13 13C13 13.4734 12.6162 13.8571 12.1429 13.8571C11.6695 13.8571 11.2857 13.4734 11.2857 13C11.2857 12.5266 11.6695 12.1429 12.1429 12.1429C12.6162 12.1429 13 12.5266 13 13ZM19 13C19 13.4734 18.6162 13.8571 18.1429 13.8571C17.6695 13.8571 17.2857 13.4734 17.2857 13C17.2857 12.5266 17.6695 12.1429 18.1429 12.1429C18.6162 12.1429 19 12.5266 19 13ZM7 18.1429C7 18.6162 6.61624 19 6.14286 19C5.66947 19 5.28571 18.6162 5.28571 18.1429C5.28571 17.6695 5.66947 17.2857 6.14286 17.2857C6.61624 17.2857 7 17.6695 7 18.1429Z" stroke="#E3E3E3" stroke-width="1.71429" stroke-linecap="round" stroke-linejoin="round"/>
</svg>
