<svg width="25" height="25" viewBox="0 0 25 25" fill="none" xmlns="http://www.w3.org/2000/svg">
<path d="M17.337 12.1429C17.3369 13.1563 17.0373 14.1472 16.4759 14.991C15.9145 15.8347 15.1163 16.4938 14.1815 16.8855C13.2468 17.2771 12.2172 17.3839 11.2219 17.1923C10.2267 17.0007 9.31032 16.5193 8.58779 15.8086C7.86525 15.0979 7.3688 14.1896 7.16079 13.1977C6.95278 12.2058 7.04247 11.1745 7.41861 10.2334C7.79475 9.29234 8.44057 8.48336 9.27496 7.90808C10.1093 7.33281 11.0951 7.01689 12.1084 7C12.791 6.98862 13.469 7.11324 14.1029 7.3666C14.7368 7.61995 15.3139 7.99697 15.8005 8.47566C16.2872 8.95436 16.6737 9.52516 16.9375 10.1548C17.2013 10.7844 17.3371 11.4602 17.337 12.1429ZM17.337 12.1429L17.337 14.3714C17.337 20.3543 26.7142 14.7143 21.7942 6.58857C20.8035 4.89665 19.3895 3.49169 17.6913 2.51183C15.993 1.53197 14.069 1.01095 12.1084 1C10.4613 1.00509 8.83577 1.37528 7.34885 2.08394C5.86194 2.79259 4.55062 3.82208 3.5093 5.09831C2.46797 6.37453 1.72253 7.86575 1.32664 9.46461C0.930746 11.0635 0.894244 12.7302 1.21976 14.3449C1.54528 15.9596 2.22472 17.482 3.20917 18.8026C4.19363 20.1232 5.45862 21.2091 6.91308 21.9821C8.36755 22.7552 9.97531 23.1962 11.6207 23.2734C13.266 23.3506 14.908 23.0621 16.4284 22.4286" stroke="#E3E3E3" stroke-width="1.71429" stroke-linecap="round" stroke-linejoin="round"/>
</svg>
