<svg width="24" height="24" viewBox="0 0 24 24" fill="none" xmlns="http://www.w3.org/2000/svg">
<path d="M12 12C13.1051 12 14.001 11.1041 14.001 9.99905C14.001 8.89395 13.1051 7.9981 12 7.9981C10.8949 7.9981 9.99905 8.89395 9.99905 9.99905C9.99905 11.1041 10.8949 12 12 12ZM12 12C11.2054 12 10.4433 12.3157 9.88137 12.8776C9.31948 13.4395 9.00381 14.2016 9.00381 14.9962M12 12C12.7946 12 13.5567 12.3157 14.1186 12.8776C14.6805 13.4395 14.9962 14.2016 14.9962 14.9962M18.2857 3.00095C20.1954 4.34331 21.6285 6.25834 22.3778 8.46903C23.1271 10.6797 23.1537 13.0715 22.4538 15.2983C21.7539 17.5251 20.3638 19.4716 18.4845 20.8561C16.6052 22.2407 14.3342 22.9915 12 23M5.71429 20.999C3.80465 19.6567 2.37153 17.7417 1.62223 15.531C0.872938 13.3203 0.846311 10.9285 1.54621 8.70169C2.2461 6.47486 3.63623 4.5284 5.51551 3.14387C7.39479 1.75933 9.66579 1.00851 12 1M18.0029 7.9981V3.00095H23M5.99714 16.0019V20.999H1" stroke="black" stroke-width="1.91" stroke-miterlimit="10"/>
</svg>
