<svg width="23" height="24" viewBox="0 0 23 24" fill="none" xmlns="http://www.w3.org/2000/svg">
<path d="M20.09 12.0157C20.0874 10.9529 19.683 9.93444 18.9653 9.18293C18.2476 8.43142 17.275 8.008 16.26 8.00524C15.245 8.008 14.2724 8.43142 13.5547 9.18293C12.837 9.93444 12.4326 10.9529 12.43 12.0157M7.65 17.0209L11.27 17.9738C11.4096 17.9893 11.5504 17.9893 11.69 17.9738C12.1409 17.9738 12.5733 17.7863 12.8921 17.4524C13.2109 17.1186 13.39 16.6658 13.39 16.1937V16.0681C13.3856 15.7518 13.3008 15.4425 13.1444 15.172C12.988 14.9015 12.7656 14.6795 12.5 14.5288L9.17 12.8115C8.17034 12.2878 7.06782 12.0153 5.95 12.0157C5.17493 12.014 4.4048 12.1449 3.67 12.4031L1.91 13.0628H0M11.5 18.0262H13.41L19.88 16.089C20.0301 16.0476 20.1847 16.0265 20.34 16.0262C20.7804 16.0317 21.2011 16.218 21.5115 16.545C21.822 16.8721 21.9974 17.3137 22 17.7749V17.8901C22.0001 18.23 21.9055 18.5625 21.7279 18.8471C21.5503 19.1316 21.2974 19.3558 21 19.4921L14.5 22.4869C13.7688 22.824 12.9789 22.9987 12.18 23C11.7148 22.9989 11.2515 22.9392 10.8 22.822L3.8 21H0M18.65 3.50262C18.65 4.88478 17.58 6.00524 16.26 6.00524C14.94 6.00524 13.87 4.88478 13.87 3.50262C13.87 2.12046 14.94 1 16.26 1C17.58 1 18.65 2.12046 18.65 3.50262Z" stroke="#E3E3E3" stroke-width="1.91" stroke-miterlimit="10"/>
</svg>
