<svg width="25" height="25" viewBox="0 0 25 25" fill="none" xmlns="http://www.w3.org/2000/svg">
<path d="M20.7143 16.4385V21.5814C20.7143 22.036 20.5337 22.4721 20.2122 22.7936C19.8907 23.115 19.4547 23.2957 19 23.2957H2.71429C2.25963 23.2957 1.82359 23.115 1.5021 22.7936C1.18061 22.4721 1 22.036 1 21.5814V5.29565C1 4.841 1.18061 4.40496 1.5021 4.08347C1.82359 3.76198 2.25963 3.58137 2.71429 3.58137H7.85714M13 15.5814L7.85714 16.5071L8.71429 11.2957L18.5371 1.50708C18.6965 1.34641 18.8861 1.21887 19.095 1.13184C19.3039 1.04481 19.528 1 19.7543 1C19.9806 1 20.2047 1.04481 20.4136 1.13184C20.6225 1.21887 20.8121 1.34641 20.9714 1.50708L22.7886 3.32423C22.9492 3.48359 23.0768 3.67319 23.1638 3.88209C23.2508 4.091 23.2957 4.31506 23.2957 4.54137C23.2957 4.76767 23.2508 4.99174 23.1638 5.20064C23.0768 5.40954 22.9492 5.59915 22.7886 5.75851L13 15.5814Z" stroke="#E3E3E3" stroke-opacity="0.7" stroke-width="1.71429" stroke-linecap="round" stroke-linejoin="round"/>
</svg>
