<svg width="24" height="24" viewBox="0 0 24 24" fill="none" xmlns="http://www.w3.org/2000/svg">
<path d="M3.2 9.00381C4.41503 9.00381 5.4 8.10795 5.4 7.00286C5.4 5.89776 4.41503 5.00191 3.2 5.00191C1.98497 5.00191 1 5.89776 1 7.00286C1 8.10795 1.98497 9.00381 3.2 9.00381ZM3.2 9.00381V14.9962M20.8 14.9962C19.585 14.9962 18.6 15.892 18.6 16.9971C18.6 18.1022 19.585 18.9981 20.8 18.9981C22.015 18.9981 23 18.1022 23 16.9971C23 15.892 22.015 14.9962 20.8 14.9962ZM20.8 14.9962V9.00381M3.2 14.9962C1.98497 14.9962 1 15.892 1 16.9971C1 18.1022 1.98497 18.9981 3.2 18.9981C4.41503 18.9981 5.4 18.1022 5.4 16.9971C5.4 15.892 4.41503 14.9962 3.2 14.9962ZM20.8 9.00381C22.015 9.00381 23 8.10795 23 7.00286C23 5.89776 22.015 5.00191 20.8 5.00191C19.585 5.00191 18.6 5.89776 18.6 7.00286C18.6 8.10795 19.585 9.00381 20.8 9.00381ZM8.70576 16.9971C8.70576 16.2025 9.05283 15.4404 9.67062 14.8785C10.2884 14.3166 11.1263 14.001 12 14.001C12.8737 14.001 13.7116 14.3166 14.3294 14.8785C14.9472 15.4404 15.2942 16.2025 15.2942 16.9971M10.0304 20.1086L5.15812 17.8876M10.0304 3.89143L5.15812 6.11238M18.8419 6.11238L13.9696 3.89143M18.8419 17.8876L13.9696 20.1086M14.2 3.00095C14.2 4.10605 13.215 5.00191 12 5.00191C10.785 5.00191 9.8 4.10605 9.8 3.00095C9.8 1.89586 10.785 1 12 1C13.215 1 14.2 1.89586 14.2 3.00095ZM14.2 20.999C14.2 22.1041 13.215 23 12 23C10.785 23 9.8 22.1041 9.8 20.999C9.8 19.894 10.785 18.9981 12 18.9981C13.215 18.9981 14.2 19.894 14.2 20.999ZM14.2 9.99905C14.2 11.1041 13.215 12 12 12C10.785 12 9.8 11.1041 9.8 9.99905C9.8 8.89395 10.785 7.9981 12 7.9981C13.215 7.9981 14.2 8.89395 14.2 9.99905Z" stroke="#E3E3E3" stroke-width="1.91" stroke-miterlimit="10"/>
</svg>
