<svg width="24" height="24" viewBox="0 0 24 24" fill="none" xmlns="http://www.w3.org/2000/svg">
<path d="M3.99621 7.00286H20.9991V1H3.99621C3.23084 1.04524 2.51166 1.38116 1.98575 1.93907C1.45985 2.49698 1.16694 3.23472 1.16694 4.00143C1.16694 4.76814 1.45985 5.50588 1.98575 6.06379C2.51166 6.6217 3.23084 6.95762 3.99621 7.00286ZM3.99621 7.00286C3.60186 7.00286 3.21139 6.92502 2.84719 6.77379C2.48299 6.62256 2.15223 6.40093 1.87387 6.12159C1.59551 5.84226 1.37503 5.51073 1.22508 5.146C1.07512 4.78128 0.998639 4.39054 1.00002 3.99619V20.999C1.00277 21.5289 1.21447 22.0362 1.58912 22.4109C1.96378 22.7856 2.47113 22.9972 3.00097 23H23V7.00286H3.99621ZM18.9981 13.0476H23V17.0495H18.9981C18.4674 17.0495 17.9585 16.8387 17.5832 16.4635C17.208 16.0882 16.9971 15.5793 16.9971 15.0486C16.9971 14.5179 17.208 14.0089 17.5832 13.6337C17.9585 13.2584 18.4674 13.0476 18.9981 13.0476Z" stroke="#E3E3E3" stroke-width="1.91" stroke-miterlimit="10" stroke-linecap="square"/>
</svg>
