<svg width="24" height="24" viewBox="0 0 24 24" fill="none" xmlns="http://www.w3.org/2000/svg">
<path d="M4.22604 9.46152V8.61537C4.22604 6.59565 5.04508 4.65865 6.50298 3.23049C7.96088 1.80233 9.93822 1 12 1C14.0618 1 16.0391 1.80233 17.497 3.23049C18.9549 4.65865 19.774 6.59565 19.774 8.61537V9.46152M8.54491 14.5384V17.923M15.4551 14.5384V17.923M22.9872 11.3569C23.0167 11.1207 22.995 10.881 22.9236 10.6536C22.8522 10.4261 22.7326 10.216 22.5726 10.0369C22.4107 9.85639 22.2114 9.71171 21.988 9.6125C21.7646 9.51329 21.5222 9.46183 21.2769 9.46152H2.72307C2.47779 9.46183 2.23538 9.51329 2.01198 9.6125C1.78858 9.71171 1.5893 9.85639 1.42741 10.0369C1.26745 10.216 1.14784 10.4261 1.07639 10.6536C1.00495 10.881 0.983282 11.1207 1.0128 11.3569L2.30846 21.5107C2.35938 21.9235 2.56364 22.3035 2.88226 22.5781C3.20089 22.8528 3.61159 23.003 4.03601 23H19.9985C20.423 23.003 20.8337 22.8528 21.1523 22.5781C21.4709 22.3035 21.6752 21.9235 21.7261 21.5107L22.9872 11.3569Z" stroke="#E3E3E3" stroke-width="1.71429" stroke-linecap="round" stroke-linejoin="round"/>
</svg>
