<svg width="25" height="25" viewBox="0 0 25 25" fill="none" xmlns="http://www.w3.org/2000/svg">
<path d="M2.76571 14.7143V22.4286C2.76571 22.6559 2.85602 22.8739 3.01677 23.0347C3.17751 23.1954 3.39553 23.2857 3.62286 23.2857H20.7657C20.993 23.2857 21.2111 23.1954 21.3718 23.0347C21.5326 22.8739 21.6229 22.6559 21.6229 22.4286V14.7143M13.9086 14.7143V23.2857M2.76571 17.2857H13.9086M23.3371 7L20.7657 1H3.62286L1.05143 7H23.3371ZM23.3371 7V8.71429C23.3371 9.6236 22.9759 10.4957 22.3329 11.1387C21.69 11.7816 20.8179 12.1429 19.9086 12.1429H19.48C18.5707 12.1429 17.6986 11.7816 17.0556 11.1387C16.4127 10.4957 16.0514 9.6236 16.0514 8.71429M8.33714 7V8.71429M8.33714 8.71429C8.33714 9.6236 7.97592 10.4957 7.33294 11.1387C6.68996 11.7816 5.81789 12.1429 4.90857 12.1429H4.42857C3.51926 12.1429 2.64719 11.7816 2.00421 11.1387C1.36122 10.4957 1 9.6236 1 8.71429V7M8.33714 8.71429C8.33714 9.6236 8.69837 10.4957 9.34135 11.1387C9.98433 11.7816 10.8564 12.1429 11.7657 12.1429H12.6229C13.5322 12.1429 14.4042 11.7816 15.0472 11.1387C15.6902 10.4957 16.0514 9.6236 16.0514 8.71429M16.0514 7V8.71429" stroke="black" stroke-width="1.71429" stroke-linecap="round" stroke-linejoin="round"/>
</svg>
