<svg width="21" height="27" viewBox="0 0 21 27" fill="none" xmlns="http://www.w3.org/2000/svg">
<path d="M15.2426 17.3505C15.2426 18.3679 14.8425 19.3435 14.1304 20.0629C13.4182 20.7822 12.4523 21.1864 11.4452 21.1864M8.88198 1.10584C8.76718 1.03658 8.63596 1 8.50224 1C8.36852 1 8.2373 1.03658 8.1225 1.10584C8.02781 1.18163 7.96392 1.28985 7.94292 1.41003C7.92193 1.53021 7.94529 1.65399 8.00858 1.75793C10.344 5.84308 10.8376 11.405 7.64783 14.4737C6.42057 13.4319 5.44623 12.1197 4.79979 10.6379C3.62019 11.2996 2.6426 12.2752 1.97315 13.4586C1.30369 14.642 0.967965 15.988 1.00241 17.3505C1.05056 18.5517 1.33607 19.731 1.84214 20.819C2.34822 21.907 3.06462 22.8818 3.94921 23.686C4.83379 24.4902 5.86868 25.1075 6.99298 25.5017C8.11728 25.8958 9.30827 26.0589 10.4959 25.9811C16.6097 25.9811 19.7805 22.1453 19.9893 17.3505C20.2362 11.5968 16.1919 4.51972 8.88198 1.10584Z" stroke="#E3E3E3" stroke-width="1.71429" stroke-linecap="round" stroke-linejoin="round"/>
</svg>
