<svg width="25" height="25" viewBox="0 0 25 25" fill="none" xmlns="http://www.w3.org/2000/svg">
<path d="M3.74286 23.2857C4.13631 21.3481 5.18754 19.606 6.71841 18.3548C8.24929 17.1035 10.1657 16.42 12.1429 16.42C14.12 16.42 16.0364 17.1035 17.5673 18.3548C19.0982 19.606 20.1494 21.3481 20.5429 23.2857M16.4286 9.57143C16.4286 11.9384 14.5098 13.8571 12.1429 13.8571C9.77592 13.8571 7.85714 11.9384 7.85714 9.57143C7.85714 7.20449 9.77592 5.28571 12.1429 5.28571C14.5098 5.28571 16.4286 7.20449 16.4286 9.57143ZM2.71429 1H21.5714C22.5182 1 23.2857 1.76751 23.2857 2.71429V21.5714C23.2857 22.5182 22.5182 23.2857 21.5714 23.2857H2.71429C1.76751 23.2857 1 22.5182 1 21.5714V2.71429C1 1.76751 1.76751 1 2.71429 1Z" stroke="black" stroke-width="1.71429" stroke-linecap="round" stroke-linejoin="round"/>
</svg>
