<svg width="25" height="25" viewBox="0 0 25 25" fill="none" xmlns="http://www.w3.org/2000/svg">
<path d="M15.1762 22.4247C16.2319 23.1058 17.4899 23.4026 18.7387 23.2652C19.9875 23.1278 21.1509 22.5647 22.0333 21.6704L22.8047 20.9161C23.1429 20.5702 23.3323 20.1056 23.3323 19.6219C23.3323 19.1381 23.1429 18.6735 22.8047 18.3276L19.5304 15.0876C19.1874 14.7504 18.7257 14.5615 18.2447 14.5615C17.7638 14.5615 17.3021 14.7504 16.959 15.0876C16.6131 15.4258 16.1485 15.6151 15.6647 15.6151C15.1809 15.6151 14.7164 15.4258 14.3704 15.0876L9.22759 9.94471C9.05603 9.77564 8.91979 9.57415 8.8268 9.35195C8.73381 9.12976 8.68592 8.89129 8.68592 8.65042C8.68592 8.40955 8.73381 8.17109 8.8268 7.94889C8.91979 7.7267 9.05603 7.52521 9.22759 7.35614C9.56471 7.0131 9.75362 6.55138 9.75362 6.07042C9.75362 5.58946 9.56471 5.12774 9.22759 4.78471L5.97045 1.52757C5.62452 1.18936 5.15995 1 4.67616 1C4.19238 1 3.72781 1.18936 3.38188 1.52757L2.62759 2.29899C1.73333 3.18141 1.17016 4.34483 1.0328 5.59362C0.895429 6.84242 1.19223 8.10044 1.8733 9.15614C5.42195 14.386 9.9372 18.8896 15.1762 22.4247Z" stroke="#E3E3E3" stroke-width="1.71429" stroke-linecap="round" stroke-linejoin="round"/>
</svg>
