<svg width="24" height="24" viewBox="0 0 24 24" fill="none" xmlns="http://www.w3.org/2000/svg">
<path d="M23 14.001H1V23H23V14.001Z" stroke="#E3E3E3" stroke-width="1.91" stroke-miterlimit="10"/>
<path d="M4.49905 18.9981C4.77677 18.9981 5.00191 18.773 5.00191 18.4952C5.00191 18.2175 4.77677 17.9924 4.49905 17.9924C4.22133 17.9924 3.99619 18.2175 3.99619 18.4952C3.99619 18.773 4.22133 18.9981 4.49905 18.9981Z" stroke="#E3E3E3" stroke-width="1.91" stroke-miterlimit="10"/>
<path d="M9.49619 18.9981C9.77391 18.9981 9.99905 18.773 9.99905 18.4952C9.99905 18.2175 9.77391 17.9924 9.49619 17.9924C9.21847 17.9924 8.99333 18.2175 8.99333 18.4952C8.99333 18.773 9.21847 18.9981 9.49619 18.9981Z" stroke="#E3E3E3" stroke-width="1.91" stroke-miterlimit="10"/>
<path d="M14.5038 18.9981C14.7815 18.9981 15.0067 18.773 15.0067 18.4952C15.0067 18.2175 14.7815 17.9924 14.5038 17.9924C14.2261 17.9924 14.001 18.2175 14.001 18.4952C14.001 18.773 14.2261 18.9981 14.5038 18.9981Z" stroke="#E3E3E3" stroke-width="1.91" stroke-miterlimit="10"/>
<path d="M19.501 18.9981C19.7787 18.9981 20.0038 18.773 20.0038 18.4952C20.0038 18.2175 19.7787 17.9924 19.501 17.9924C19.2232 17.9924 18.9981 18.2175 18.9981 18.4952C18.9981 18.773 19.2232 18.9981 19.501 18.9981Z" stroke="#E3E3E3" stroke-width="1.91" stroke-miterlimit="10"/>
<path d="M15.0067 5.00191H9.00381V9.99905H15.0067V5.00191Z" stroke="#E3E3E3" stroke-width="1.91" stroke-miterlimit="10"/>
<path d="M12 1C12.5307 1 13.0396 1.21081 13.4149 1.58607C13.7901 1.96132 14.001 2.47027 14.001 3.00095V5.00191H9.99905V3.00095C9.99905 2.47027 10.2099 1.96132 10.5851 1.58607C10.9604 1.21081 11.4693 1 12 1Z" stroke="#E3E3E3" stroke-width="1.91" stroke-miterlimit="10"/>
</svg>
