<svg width="25" height="25" viewBox="0 0 25 25" fill="none" xmlns="http://www.w3.org/2000/svg">
<path d="M12.1429 1V7.85714M14.7143 19H19M1 7.85714H23.2857M1 7.85714V21.5714C1 22.0261 1.18061 22.4621 1.5021 22.7836C1.82359 23.1051 2.25963 23.2857 2.71429 23.2857H21.5714C22.0261 23.2857 22.4621 23.1051 22.7836 22.7836C23.1051 22.4621 23.2857 22.0261 23.2857 21.5714V7.85714M1 7.85714L3.57143 2.90286C3.84864 2.34446 4.27286 1.87222 4.79844 1.53694C5.32402 1.20166 5.93107 1.01602 6.55429 1H17.7314C18.3693 1.00034 18.9944 1.17861 19.5365 1.51476C20.0786 1.85092 20.5162 2.33164 20.8 2.90286L23.2857 7.85714" stroke="#E3E3E3" stroke-width="1.71429" stroke-linecap="round" stroke-linejoin="round"/>
</svg>
