<svg width="29" height="17" viewBox="0 0 29 17" fill="none" xmlns="http://www.w3.org/2000/svg">
<path d="M1.20455 13.0909C0.924242 13.0909 0.683712 12.9905 0.482955 12.7898C0.282197 12.589 0.181818 12.3485 0.181818 12.0682C0.181818 11.7879 0.282197 11.5473 0.482955 11.3466C0.683712 11.1458 0.924242 11.0455 1.20455 11.0455C1.48485 11.0455 1.72538 11.1458 1.92614 11.3466C2.12689 11.5473 2.22727 11.7879 2.22727 12.0682C2.22727 12.2538 2.17992 12.4242 2.08523 12.5795C1.99432 12.7348 1.87121 12.8598 1.71591 12.9545C1.56439 13.0455 1.39394 13.0909 1.20455 13.0909ZM4.63352 16.2727V4.27273H5.92898V5.65909H6.08807C6.18655 5.50758 6.32292 5.31439 6.49716 5.07955C6.67519 4.84091 6.92898 4.62879 7.25852 4.44318C7.59186 4.25379 8.04261 4.15909 8.6108 4.15909C9.34564 4.15909 9.99337 4.3428 10.554 4.71023C11.1146 5.07765 11.5521 5.59848 11.8665 6.27273C12.1809 6.94697 12.3381 7.74242 12.3381 8.65909C12.3381 9.58333 12.1809 10.3845 11.8665 11.0625C11.5521 11.7367 11.1165 12.2595 10.5597 12.6307C10.0028 12.9981 9.3608 13.1818 8.63352 13.1818C8.07292 13.1818 7.62405 13.089 7.28693 12.9034C6.94981 12.714 6.69034 12.5 6.50852 12.2614C6.3267 12.0189 6.18655 11.8182 6.08807 11.6591H5.97443V16.2727H4.63352ZM5.9517 8.63636C5.9517 9.29545 6.0483 9.87689 6.24148 10.3807C6.43466 10.8807 6.71686 11.2727 7.08807 11.5568C7.45928 11.8371 7.91383 11.9773 8.4517 11.9773C9.01231 11.9773 9.48011 11.8295 9.85511 11.5341C10.2339 11.2348 10.518 10.8333 10.7074 10.3295C10.9006 9.82197 10.9972 9.25758 10.9972 8.63636C10.9972 8.02273 10.9025 7.4697 10.7131 6.97727C10.5275 6.48106 10.2453 6.08902 9.86648 5.80114C9.49148 5.50947 9.01989 5.36364 8.4517 5.36364C7.90625 5.36364 7.44792 5.50189 7.0767 5.77841C6.70549 6.05114 6.42519 6.43371 6.2358 6.92614C6.0464 7.41477 5.9517 7.98485 5.9517 8.63636ZM17.679 13.1818C16.9517 13.1818 16.3097 12.9981 15.7528 12.6307C15.196 12.2595 14.7604 11.7367 14.446 11.0625C14.1316 10.3845 13.9744 9.58333 13.9744 8.65909C13.9744 7.74242 14.1316 6.94697 14.446 6.27273C14.7604 5.59848 15.1979 5.07765 15.7585 4.71023C16.3191 4.3428 16.9669 4.15909 17.7017 4.15909C18.2699 4.15909 18.7188 4.25379 19.0483 4.44318C19.3816 4.62879 19.6354 4.84091 19.8097 5.07955C19.9877 5.31439 20.1259 5.50758 20.2244 5.65909H20.3381V1.36364H21.679V13H20.3835V11.6591H20.2244C20.1259 11.8182 19.9858 12.0189 19.804 12.2614C19.6222 12.5 19.3627 12.714 19.0256 12.9034C18.6884 13.089 18.2396 13.1818 17.679 13.1818ZM17.8608 11.9773C18.3987 11.9773 18.8532 11.8371 19.2244 11.5568C19.5956 11.2727 19.8778 10.8807 20.071 10.3807C20.2642 9.87689 20.3608 9.29545 20.3608 8.63636C20.3608 7.98485 20.2661 7.41477 20.0767 6.92614C19.8873 6.43371 19.607 6.05114 19.2358 5.77841C18.8646 5.50189 18.4063 5.36364 17.8608 5.36364C17.2926 5.36364 16.8191 5.50947 16.4403 5.80114C16.0653 6.08902 15.7831 6.48106 15.5938 6.97727C15.4081 7.4697 15.3153 8.02273 15.3153 8.63636C15.3153 9.25758 15.41 9.82197 15.5994 10.3295C15.7926 10.8333 16.0767 11.2348 16.4517 11.5341C16.8305 11.8295 17.3002 11.9773 17.8608 11.9773ZM28.2074 4.27273V5.40909H23.5028V4.27273H28.2074ZM24.9119 13V3.06818C24.9119 2.56818 25.0294 2.15151 25.2642 1.81818C25.4991 1.48485 25.804 1.23485 26.179 1.06818C26.554 0.901514 26.9498 0.818181 27.3665 0.818181C27.696 0.818181 27.965 0.844696 28.1733 0.897727C28.3816 0.950757 28.5369 0.999999 28.6392 1.04545L28.2528 2.20455C28.1847 2.18182 28.09 2.15341 27.9688 2.11932C27.8513 2.08523 27.696 2.06818 27.5028 2.06818C27.0597 2.06818 26.7396 2.17992 26.5426 2.40341C26.3494 2.62689 26.2528 2.95455 26.2528 3.38636V13H24.9119Z" fill="#E3E3E3"/>
</svg>
