<svg width="24" height="24" viewBox="0 0 24 24" fill="none" xmlns="http://www.w3.org/2000/svg">
<path d="M12 11.9739C14.9174 11.9739 17.7153 13.0254 19.7782 14.8972C21.8411 16.769 23 19.3077 23 21.9549V23H1V21.9549C1 19.3077 2.15893 16.769 4.22183 14.8972C6.28473 13.0254 9.08262 11.9739 12 11.9739ZM12 11.9739C12.7225 11.9752 13.4382 11.8473 14.1061 11.5974C14.774 11.3475 15.3811 10.9805 15.8925 10.5174C16.4039 10.0544 16.8096 9.50432 17.0864 8.8988C17.3633 8.29327 17.5058 7.64415 17.5058 6.9886V1H6.50576V6.9886C6.50576 8.31078 7.08462 9.5788 8.11499 10.5137C9.14536 11.4486 10.5428 11.9739 12 11.9739ZM6.50576 3.98907L12 4.9924L17.4942 3.68599M2.10576 1H21.8942M17.4942 12.9667L13.555 16.5515M10.445 16.5515L6.50576 12.9667M14.2 17.9625C14.2 19.0649 13.215 19.9587 12 19.9587C10.785 19.9587 9.8 19.0649 9.8 17.9625C9.8 16.86 10.785 15.9663 12 15.9663C13.215 15.9663 14.2 16.86 14.2 17.9625Z" stroke="#EFEFEF" stroke-width="1.91" stroke-miterlimit="10"/>
</svg>
