<svg width="24" height="24" viewBox="0 0 24 24" fill="none" xmlns="http://www.w3.org/2000/svg">
<path d="M12 23C12 22.4745 11.8965 21.9541 11.6954 21.4685C11.4943 20.983 11.1995 20.5418 10.8279 20.1702C10.4563 19.7986 10.0151 19.5038 9.52956 19.3027C9.04402 19.1016 8.52363 18.9981 7.9981 18.9981H1V23M12 23H1M12 23H23M12 23C12 21.9386 12.4216 20.9207 13.1721 20.1702C13.9226 19.4197 14.9405 18.9981 16.0019 18.9981H23V23M12 23V9.99906M1 23V5.99716H7.9981C8.52363 5.99716 9.04402 6.10068 9.52956 6.30179C10.0151 6.5029 10.4563 6.79768 10.8279 7.16929C11.1995 7.5409 11.4943 7.98207 11.6954 8.4676C11.8965 8.95314 12 9.47353 12 9.99906M23 23V5.99716H20.0038M12 9.99906C12 8.93769 12.4216 7.91979 13.1721 7.16929C13.9226 6.41879 14.9405 5.99716 16.0019 5.99716M20.0038 13.0476L18.0029 15.0486L16.0019 13.0476V3.00098C16.0005 2.73782 16.0513 2.477 16.1514 2.23361C16.2515 1.99021 16.3988 1.76908 16.5849 1.583C16.771 1.39691 16.9921 1.24958 17.2355 1.14951C17.4789 1.04945 17.7397 0.998639 18.0029 1.00003C18.5335 1.00003 19.0425 1.21084 19.4177 1.58609C19.793 1.96134 20.0038 2.47029 20.0038 3.00098V13.0476Z" stroke="#E3E3E3" stroke-width="1.91" stroke-miterlimit="10"/>
</svg>
