<svg width="24" height="24" viewBox="0 0 24 24" fill="none" xmlns="http://www.w3.org/2000/svg">
<path d="M12 12.045V10.8481C11.9996 10.5847 12.0512 10.3239 12.1519 10.0806C12.2526 9.83732 12.4004 9.61644 12.5867 9.4307L13.4143 8.60128C13.7886 8.22481 13.9995 7.7154 14.001 7.18391V7.00543C13.9982 6.47541 13.7861 5.96804 13.4112 5.59424C13.0362 5.22044 12.5289 5.01061 12 5.01062C11.4711 5.01061 10.9638 5.22044 10.5888 5.59424C10.2139 5.96804 10.0018 6.47541 9.99905 7.00543M11.0048 14.0293H12.9952M18.9981 1H5.00191C3.94053 1 2.92263 1.42255 2.17213 2.17468C1.42163 2.92682 1 3.94694 1 5.01062V15.0267C1 16.0903 1.42163 17.1105 2.17213 17.8626C2.92263 18.6147 3.94053 19.0373 5.00191 19.0373H9.00381L12 22.04L14.9962 19.0373H18.9981C20.0595 19.0373 21.0774 18.6147 21.8279 17.8626C22.5784 17.1105 23 16.0903 23 15.0267V5.01062C23 3.94694 22.5784 2.92682 21.8279 2.17468C21.0774 1.42255 20.0595 1 18.9981 1Z" stroke="black" stroke-width="1.91" stroke-miterlimit="10"/>
</svg>
