<svg width="26" height="24" viewBox="0 0 26 24" fill="none" xmlns="http://www.w3.org/2000/svg">
<path d="M21.9734 12C21.9745 11.4479 21.922 10.8971 21.8167 10.3552L24 9.0981L21.0019 3.86L18.8291 5.11714C17.9891 4.40333 17.0262 3.84947 15.9877 3.48286V1H10.0123V3.52476C8.97384 3.89138 8.01089 4.44524 7.17094 5.15905L4.9981 3.9019L2 9.14L4.18329 10.3971C3.97432 11.4836 3.97432 12.6002 4.18329 13.6867L2 14.9438L4.9981 20.1819L7.17094 18.9248C8.01089 19.6386 8.97384 20.1924 10.0123 20.559V23H15.9877V20.4752C17.0262 20.1086 17.9891 19.5548 18.8291 18.841L21.0019 20.0981L24 14.86L21.8167 13.6029C21.9194 13.0747 21.9718 12.5381 21.9734 12Z" stroke="#E3E3E3" stroke-width="1.91" stroke-miterlimit="10"/>
<path d="M13 16.0019C15.2039 16.0019 16.9905 14.2102 16.9905 12C16.9905 9.78981 15.2039 7.9981 13 7.9981C10.7961 7.9981 9.0095 9.78981 9.0095 12C9.0095 14.2102 10.7961 16.0019 13 16.0019Z" stroke="#E3E3E3" stroke-width="1.91" stroke-miterlimit="10"/>
</svg>
