<svg width="25" height="25" viewBox="0 0 25 25" fill="none" xmlns="http://www.w3.org/2000/svg">
<path d="M5.56372 14.2097C5.84376 14.2097 6.07077 13.9835 6.07077 13.7046C6.07077 13.4257 5.84376 13.1996 5.56372 13.1996C5.28369 13.1996 5.05667 13.4257 5.05667 13.7046C5.05667 13.9835 5.28369 14.2097 5.56372 14.2097Z" stroke="#E3E3E3" stroke-width="1.92" stroke-miterlimit="10"/>
<path d="M7.59192 19.2493C7.87195 19.2493 8.09897 19.0232 8.09897 18.7443C8.09897 18.4654 7.87195 18.2393 7.59192 18.2393C7.31188 18.2393 7.08487 18.4654 7.08487 18.7443C7.08487 19.0232 7.31188 19.2493 7.59192 19.2493Z" stroke="#E3E3E3" stroke-width="1.92" stroke-miterlimit="10"/>
<path d="M6.57782 9.15947C6.85786 9.15947 7.08487 8.93337 7.08487 8.65445C7.08487 8.37554 6.85786 8.14944 6.57782 8.14944C6.29778 8.14944 6.07077 8.37554 6.07077 8.65445C6.07077 8.93337 6.29778 9.15947 6.57782 9.15947Z" stroke="#E3E3E3" stroke-width="1.92" stroke-miterlimit="10"/>
<path d="M10.6236 6.13989C10.9037 6.13989 11.1307 5.91378 11.1307 5.63487C11.1307 5.35596 10.9037 5.12985 10.6236 5.12985C10.3436 5.12985 10.1166 5.35596 10.1166 5.63487C10.1166 5.91378 10.3436 6.13989 10.6236 6.13989Z" stroke="#E3E3E3" stroke-width="1.92" stroke-miterlimit="10"/>
<path d="M15.6941 7.14992C15.9742 7.14992 16.2012 6.92382 16.2012 6.64491C16.2012 6.36599 15.9742 6.13989 15.6941 6.13989C15.4141 6.13989 15.1871 6.36599 15.1871 6.64491C15.1871 6.92382 15.4141 7.14992 15.6941 7.14992Z" stroke="#E3E3E3" stroke-width="1.92" stroke-miterlimit="10"/>
<path d="M18.7364 11.1795C19.0165 11.1795 19.2435 10.9534 19.2435 10.6745C19.2435 10.3956 19.0165 10.1695 18.7364 10.1695C18.4564 10.1695 18.2294 10.3956 18.2294 10.6745C18.2294 10.9534 18.4564 11.1795 18.7364 11.1795Z" stroke="#E3E3E3" stroke-width="1.92" stroke-miterlimit="10"/>
<path d="M23.2893 12.0318C23.3005 12.7108 23.1761 13.3853 22.9232 14.016C22.6704 14.6467 22.2942 15.221 21.8164 15.7056C21.3387 16.1902 20.7691 16.5754 20.1406 16.8388C19.5121 17.1022 18.8373 17.2385 18.1554 17.2398H16.6026C15.8563 17.2387 15.1214 17.4217 14.4633 17.7723C13.8053 18.1229 13.2447 18.6304 12.8314 19.2493L11.6166 21.059C11.155 21.7523 10.5266 22.3195 9.78855 22.7091C9.05054 23.0987 8.22641 23.2982 7.39121 23.2894C6.58844 23.3015 5.79512 23.1157 5.08188 22.7486C4.36863 22.3815 3.75759 21.8444 3.30313 21.1852C1.79478 18.9216 0.993455 16.2636 1.00028 13.5468V12.1791C0.97927 9.23519 2.13327 6.40358 4.20841 4.30715C6.28356 2.21073 9.10986 1.02121 12.0656 1.00028C15.0213 0.979353 17.8643 2.12873 19.9691 4.19556C22.074 6.26239 23.2683 9.07737 23.2893 12.0212V12.0318Z" stroke="#E3E3E3" stroke-width="1.92" stroke-miterlimit="10"/>
</svg>
