<svg width="25" height="24" viewBox="0 0 25 24" fill="none" xmlns="http://www.w3.org/2000/svg">
<path d="M10.4286 22.4286H13.8571M1 9.34857C1.00092 7.71682 1.39006 6.10869 2.13526 4.65704C2.88046 3.20539 3.96035 1.95186 5.28571 1M23.2857 9.34857C23.2848 7.71682 22.8957 6.10869 22.1505 4.65704C21.4052 3.20539 20.3254 1.95186 19 1M19 9.57143C19 7.7528 18.2776 6.00866 16.9916 4.7227C15.7056 3.43673 13.9615 2.71429 12.1429 2.71429C10.3242 2.71429 8.58009 3.43673 7.29412 4.7227C6.00816 6.00866 5.28571 7.7528 5.28571 9.57143V15.5714C5.28571 16.2534 5.0148 16.9075 4.53256 17.3897C4.05032 17.8719 3.39627 18.1429 2.71429 18.1429H21.5714C20.8894 18.1429 20.2354 17.8719 19.7532 17.3897C19.2709 16.9075 19 16.2534 19 15.5714V9.57143Z" stroke="black" stroke-width="1.71429" stroke-linecap="round" stroke-linejoin="round"/>
</svg>
